# xmcd CD database file
#
# Track frame offsets:
#	150
#	7930
#	20842
#	23884
#	38190
#	48264
#	52966
#	79796
#	92577
#	122889
#	131013
#	152835
#	175870
#	209406
#
# Disc length: 3328 seconds
#
# Revision: 0
# Processed by: cddbd v1.5.2PL0 Copyright (c) Steve Scherf et al.
# Submitted via: CDex 1.70beta2
#
DISCID=b10cfe0e
DTITLE=Heavy Tuba and John Sass - Pictures at an Exhibition
DYEAR=2003
DGENRE=Jazz
TTITLE0=Promenade 1
TTITLE1=Der Gnom
TTITLE2=Promenade 2
TTITLE3=Das alte Schloss
TTITLE4=Quängelnde Kinderschar
TTITLE5=Promenade 3
TTITLE6=Das Ur-Viech
TTITLE7=Der Eiertanz
TTITLE8=a) Samuel Goldberg and Schmuyle b) Der Tratsch am Marktplatz c) Rico Rosental stösst dazu
TTITLE9=Promenade 4
TTITLE10=Die Katakomben
TTITLE11=Die Baba-Yaga-Saga
TTITLE12=Das Grosse Tor von Kiew (das niemals gebaut wurde)
TTITLE13=Data
EXTD=YEAR: 2003
EXTT0=
EXTT1=
EXTT2=
EXTT3=
EXTT4=
EXTT5=
EXTT6=
EXTT7=
EXTT8=
EXTT9=
EXTT10=
EXTT11=
EXTT12=
EXTT13=
PLAYORDER=
